<?xml version="1.0" standalone="no"?>
<!DOCTYPE svg PUBLIC "-//W3C//DTD SVG 20010904//EN"
 "http://www.w3.org/TR/2001/REC-SVG-20010904/DTD/svg10.dtd">
<svg version="1.0" xmlns="http://www.w3.org/2000/svg"
 width="225.000000pt" height="225.000000pt" viewBox="0 0 225.000000 225.000000"
 preserveAspectRatio="xMidYMid meet">

<g transform="translate(0.000000,225.000000) scale(0.100000,-0.100000)"
fill="#000000" stroke="none">
<path d="M1515 1931 c5 -18 1 -19 -73 -14 -58 4 -93 1 -137 -12 l-60 -18 35
-9 c53 -14 56 -25 8 -32 -24 -4 -56 -15 -71 -24 -26 -18 -197 -180 -197 -188
0 -3 11 -2 24 2 63 15 29 -41 -57 -97 l-60 -39 46 0 c25 0 53 -3 62 -6 29 -12
-12 -42 -74 -54 -31 -7 -67 -14 -81 -17 l-25 -5 30 -16 30 -15 -35 -14 c-80
-31 -79 -29 -38 -47 21 -9 51 -16 68 -16 16 0 30 -4 30 -8 0 -22 -86 -87 -175
-132 -73 -38 -119 -70 -170 -119 -119 -116 -285 -211 -367 -211 -102 0 -133
101 -44 140 23 11 56 35 74 56 28 31 37 36 67 32 28 -3 32 -1 23 10 -20 23
-86 52 -120 52 -81 0 -148 -93 -148 -204 0 -115 53 -162 176 -154 59 4 87 12
153 45 45 22 81 35 81 29 0 -28 -32 -161 -45 -186 -8 -16 -26 -37 -40 -48 -17
-14 -25 -30 -25 -51 0 -17 -15 -76 -34 -131 l-35 -100 26 -20 c31 -24 73 -26
113 -5 29 15 30 17 30 92 0 125 10 145 125 258 56 55 110 112 120 128 22 34
35 35 35 2 0 -16 -18 -45 -50 -80 -56 -62 -59 -76 -31 -158 11 -31 23 -77 26
-102 4 -25 10 -47 14 -49 10 -7 67 23 86 44 16 18 16 23 -9 95 -14 41 -26 80
-26 85 0 18 40 50 62 50 54 0 104 23 144 66 l42 45 57 -9 c51 -8 68 -6 151 21
51 17 96 28 99 25 12 -12 -15 -46 -66 -83 l-51 -38 7 -61 c9 -88 13 -96 52
-112 50 -21 132 3 167 49 37 48 73 132 91 215 9 39 21 72 26 72 5 0 9 -7 9
-15 0 -18 12 -19 29 -2 11 10 12 6 6 -21 l-7 -34 32 17 c17 9 49 32 70 51 25
23 40 30 43 22 10 -31 107 95 107 139 0 35 27 40 51 9 21 -26 22 -26 47 -10
14 9 28 13 30 8 2 -5 17 -38 35 -74 28 -58 36 -65 64 -68 41 -4 69 11 93 51
23 37 25 82 6 116 -27 49 -119 130 -172 152 -39 16 -53 27 -50 38 3 9 8 50 12
91 l7 75 -22 -19 c-21 -19 -21 -19 -21 5 1 34 16 97 35 142 14 33 18 37 32 26
23 -20 43 14 43 76 0 106 -26 135 -120 135 -52 0 -54 1 -121 98 -31 45 -82 82
-113 82 -13 0 -16 -5 -12 -16 5 -12 2 -15 -11 -9 -17 6 -117 25 -136 25 -5 0
-6 -9 -2 -19z m135 -27 c43 -13 54 -13 61 -3 6 10 13 9 31 -6 54 -47 67 -83
21 -60 -16 8 -41 17 -58 20 -27 6 -28 5 -12 -8 9 -8 17 -16 17 -18 0 -2 -35
-3 -77 -2 -43 1 -71 0 -63 -3 8 -3 22 -8 30 -11 8 -3 -9 -11 -38 -19 -55 -14
-149 -60 -102 -50 14 4 43 9 65 12 l40 6 -60 -45 c-34 -25 -87 -60 -119 -76
-32 -17 -51 -31 -43 -31 26 0 101 30 140 56 22 14 41 24 43 22 8 -8 -52 -58
-106 -88 -51 -29 -52 -31 -20 -24 39 7 85 23 145 49 l40 17 -19 -21 c-11 -12
-51 -37 -89 -56 -79 -40 -61 -47 27 -10 32 13 54 19 47 12 -27 -27 -6 -25 59
8 39 19 70 31 70 26 0 -23 -74 -62 -190 -101 -69 -23 -129 -45 -134 -50 -22
-21 250 50 292 77 33 21 35 12 7 -30 -22 -32 -73 -76 -131 -114 -31 -20 45 7
84 30 47 28 41 3 -10 -45 -44 -41 -44 -47 1 -23 34 17 81 70 81 91 0 8 4 14
10 14 14 0 0 -99 -21 -148 -10 -24 -32 -63 -48 -88 -17 -24 -27 -44 -22 -44 9
0 79 76 98 106 11 18 12 17 12 -8 1 -15 -8 -51 -19 -80 -11 -28 -18 -53 -16
-55 2 -2 25 20 51 49 l47 53 -6 -43 c-6 -40 -5 -43 14 -37 33 11 23 -13 -26
-61 -39 -37 -42 -43 -19 -34 35 13 35 14 35 -17 0 -25 0 -26 20 -8 19 18 20
17 20 -4 0 -27 -29 -91 -41 -91 -5 0 -11 11 -15 25 -9 35 -18 31 -39 -15 -17
-38 -55 -83 -55 -64 1 5 5 28 9 52 8 39 0 59 -12 29 -10 -27 -117 -63 -117
-39 0 4 16 17 35 29 36 24 58 53 70 91 6 22 2 20 -44 -14 -28 -21 -51 -41 -51
-45 0 -4 -16 -13 -36 -19 -56 -19 -63 0 -20 56 20 26 36 50 36 55 0 4 -18 -2
-41 -13 -22 -10 -43 -17 -45 -15 -11 10 46 89 84 116 22 17 46 41 53 53 12 22
12 22 -12 5 -53 -39 -129 -69 -157 -62 l-27 7 40 18 c22 9 46 24 53 33 11 13
8 13 -30 0 -41 -15 -218 -31 -208 -20 23 24 86 57 111 57 28 0 99 24 99 33 0
2 -20 0 -45 -6 -32 -7 -59 -7 -94 1 -35 8 -59 8 -80 1 -16 -6 -42 -9 -58 -7
-27 3 -27 4 17 25 25 11 54 23 65 26 14 3 11 5 -10 6 -16 0 -55 -11 -85 -25
-132 -62 -172 -63 -72 -1 31 19 78 57 103 84 26 27 57 56 70 65 13 10 19 17
13 17 -6 1 -30 -14 -54 -31 -69 -53 -102 -67 -155 -67 -51 0 -134 26 -88 28
52 2 139 45 188 93 53 52 37 51 -29 -1 -22 -17 -41 -29 -43 -27 -9 8 36 82 69
112 18 17 54 44 81 59 54 31 59 37 19 26 -50 -15 -86 -38 -154 -100 -36 -34
-74 -61 -85 -61 -14 0 -11 7 17 33 19 18 66 68 105 111 43 49 84 85 110 97 32
14 35 18 17 18 -30 1 -53 -12 -119 -65 -30 -24 -59 -44 -65 -44 -20 0 79 105
127 135 43 26 60 31 144 35 l95 5 -52 24 c-62 29 -53 41 28 41 52 0 96 -8 148
-24 21 -7 23 -6 13 12 -20 38 -17 39 59 16z m173 -134 c4 -17 15 -20 83 -22
71 -3 76 -4 52 -15 -14 -6 -29 -17 -33 -22 -3 -6 -15 -11 -26 -11 -12 0 -17
-4 -14 -11 4 -5 17 -9 28 -8 45 3 57 -1 57 -20 0 -22 -82 -61 -129 -61 -35 0
-38 6 -15 38 8 12 10 22 5 22 -14 0 -43 -45 -40 -62 2 -7 -3 -24 -11 -38 -9
-15 -14 -51 -14 -90 0 -52 6 -76 30 -120 28 -54 30 -55 79 -60 47 -5 50 -7 46
-30 -6 -47 -41 -85 -41 -45 0 11 -7 10 -35 -6 -19 -11 -38 -18 -43 -15 -5 3
-12 34 -14 69 -3 36 -10 73 -16 83 -9 16 -12 12 -23 -26 l-13 -45 -7 115 c-5
63 -4 129 1 147 5 19 4 33 -1 35 -6 2 -3 21 5 46 17 48 18 47 -48 27 -61 -19
-70 -19 -62 0 3 8 9 22 13 31 5 14 2 16 -19 11 -15 -4 -34 -10 -43 -13 -16 -6
-16 -5 -1 25 21 40 71 71 114 71 17 0 32 5 32 10 0 6 22 10 49 10 40 0 50 -4
54 -20z m197 -96 c0 -8 -6 -14 -14 -14 -12 0 -14 10 -7 38 3 10 21 -11 21 -24z
m-10 -69 c0 -14 -4 -25 -10 -25 -5 0 -10 5 -10 10 0 24 -42 7 -71 -30 -35 -44
-49 -50 -49 -22 0 10 -5 23 -10 28 -8 8 11 19 62 37 92 32 88 32 88 2z m-177
-137 c30 -41 57 -93 57 -110 -1 -7 -8 0 -17 16 l-15 29 -14 -32 c-17 -41 -30
-33 -49 31 -29 98 -10 130 38 66z m-830 -113 c-3 -15 -72 -27 -91 -16 -15 9
-14 11 8 20 30 12 86 10 83 -4z m887 -25 c10 0 22 5 25 10 3 6 13 10 21 10 12
0 12 -4 4 -20 -8 -15 -21 -20 -55 -20 -46 0 -58 13 -32 39 10 10 13 9 15 -3 2
-9 12 -16 22 -16z m-906 -65 c-5 -12 2 -15 30 -15 20 0 36 -2 36 -4 0 -2 -22
-43 -50 -92 -27 -49 -50 -92 -50 -96 0 -4 20 0 45 9 25 8 51 13 58 10 7 -2 39
-44 71 -92 65 -97 65 -102 6 -143 -43 -29 -90 -28 -209 3 -52 14 -114 25 -137
25 -38 0 -45 -4 -66 -37 -12 -21 -71 -88 -130 -150 -117 -123 -122 -132 -135
-268 -4 -44 -9 -72 -11 -63 -5 27 -16 22 -30 -14 -12 -30 -14 -31 -26 -16 -9
13 -16 14 -24 6 -27 -27 -21 26 12 116 20 52 36 107 36 121 0 14 7 28 15 31
26 10 54 68 74 153 32 134 60 208 99 260 50 65 87 95 167 132 37 18 99 56 138
85 73 56 90 64 81 39z m284 -11 c-9 -9 -40 -25 -70 -35 -53 -18 -53 -18 -25
-28 16 -6 52 -11 82 -11 51 0 115 -24 115 -44 0 -4 -27 -6 -59 -4 -67 5 -69
-5 -7 -33 43 -19 47 -22 140 -157 69 -100 71 -125 11 -159 -40 -23 -40 -27 4
-23 22 2 23 -1 17 -32 -10 -52 -58 -140 -88 -162 -38 -27 -43 -17 -13 24 30
41 34 75 5 37 -34 -43 -97 -88 -114 -81 -27 10 -18 31 29 75 56 52 59 69 4 29
-23 -16 -45 -27 -50 -24 -5 3 -9 20 -9 37 0 26 8 36 41 57 22 14 48 37 56 52
9 14 22 24 30 21 7 -3 13 0 13 7 0 24 -63 91 -184 195 -68 59 -129 118 -135
132 -10 23 -8 32 16 72 27 43 33 47 88 57 33 7 73 12 90 13 27 1 28 0 13 -15z
m747 -81 c38 -19 112 -90 131 -125 20 -38 17 -82 -6 -109 l-20 -24 1 45 c2 82
-2 85 -24 21 -12 -36 -28 -67 -35 -69 -15 -4 -46 61 -62 133 -19 82 -19 82
-46 37 -29 -48 -34 -50 -59 -22 -10 11 -25 19 -34 18 -13 -2 -17 9 -19 55 -2
35 1 57 8 57 5 0 10 -7 10 -15 0 -12 7 -11 43 5 43 19 61 18 112 -7z m-1751
-69 c13 -5 9 -14 -20 -50 -20 -24 -45 -44 -55 -44 -24 0 -24 8 -1 33 21 25 -2
14 -35 -16 -14 -13 -23 -16 -23 -8 0 23 21 52 53 71 33 21 54 24 81 14z m-88
-280 c48 -12 128 2 193 34 35 18 66 30 69 28 2 -3 -24 -23 -58 -45 -100 -65
-202 -69 -252 -9 -16 18 -28 44 -28 58 0 22 3 21 26 -17 15 -26 35 -45 50 -49z
m574 -226 c6 -24 18 -60 26 -81 17 -44 18 -57 4 -57 -5 0 -10 6 -10 14 0 8 -4
17 -8 20 -5 3 -7 -8 -4 -23 7 -51 -16 -44 -32 9 -25 82 -29 116 -17 139 17 32
29 26 41 -21z"/>
<path d="M1485 1433 c-27 -14 -83 -31 -125 -37 -72 -12 -74 -13 -37 -20 60
-11 139 10 183 49 47 41 44 42 -21 8z"/>
<path d="M1780 1753 c0 -5 -13 -8 -30 -9 -16 -1 -42 -10 -57 -20 l-28 -19 65
-3 c39 -2 81 3 105 12 l40 15 -31 0 c-19 1 -34 7 -38 16 -5 15 -26 21 -26 8z
m-27 -30 c-7 -2 -19 -2 -25 0 -7 3 -2 5 12 5 14 0 19 -2 13 -5z"/>
<path d="M811 1084 c-1 -6 -19 -39 -42 -74 -22 -34 -38 -64 -36 -66 2 -3 18
10 35 27 33 34 57 90 49 112 -3 7 -6 7 -6 1z"/>
</g>
</svg>
